<svg width="3630" height="3630" xmlns="http://www.w3.org/2000/svg" xmlns:xlink="http://www.w3.org/1999/xlink" xml:space="preserve" overflow="hidden"><defs><clipPath id="clip0"><rect x="0" y="0" width="3630" height="3630"/></clipPath></defs><g clip-path="url(#clip0)"><path d="M0 1815C-2.31074e-13 812.603 812.603-2.31074e-13 1815-4.62147e-13 2817.4-9.24295e-13 3630 812.603 3630 1815 3630 2817.4 2817.4 3630 1815 3630 812.603 3630-1.15537e-12 2817.4 0 1815Z" fill="#FFFFFF" fill-rule="evenodd"/><path d="M1677.98 359.529C1720.81 283.421 1817.23 256.443 1893.34 299.273L2979.75 910.653C3055.86 953.483 3082.84 1049.9 3040.01 1126.01L3040.01 1126.01C2997.18 1202.12 2900.76 1229.1 2824.65 1186.27L1738.24 574.888C1662.13 532.057 1635.15 435.638 1677.98 359.529Z" fill="#0D0D0D" fill-rule="evenodd"/><path d="M1671.93 1745.67C1629.31 1669.45 1656.55 1573.1 1732.78 1530.48L2833.59 915.001C2909.82 872.381 3006.16 899.625 3048.78 975.852L3048.78 975.852C3091.4 1052.08 3064.16 1148.42 2987.93 1191.04L1887.12 1806.52C1810.89 1849.14 1714.55 1821.9 1671.93 1745.67Z" fill="#0D0D0D" fill-rule="evenodd"/><path d="M578.563 975.616C621.393 899.507 717.812 872.529 793.921 915.36L1868.7 1520.19C1944.81 1563.02 1971.79 1659.44 1928.96 1735.55L1928.96 1735.55C1886.13 1811.66 1789.71 1838.64 1713.6 1795.81L638.819 1190.97C562.71 1148.14 535.733 1051.72 578.563 975.616Z" fill="#0D0D0D" fill-rule="evenodd"/><path d="M586.658 1125.8C544.038 1049.57 571.282 953.226 647.509 910.606L1253 572.065C1329.23 529.445 1425.57 556.689 1468.19 632.916L1468.19 632.917C1510.81 709.144 1483.57 805.488 1407.34 848.108L801.849 1186.65C725.622 1229.27 629.277 1202.02 586.657 1125.8Z" fill="#0D0D0D" fill-rule="evenodd"/><path d="M1672.27 2508.66C1629.24 2431.7 1656.74 2334.43 1733.7 2291.41L2838.15 1673.89C2915.1 1630.86 3012.37 1658.37 3055.4 1735.32L3055.4 1735.33C3098.43 1812.28 3070.92 1909.55 2993.96 1952.58L1889.52 2570.09C1812.56 2613.12 1715.3 2585.61 1672.27 2508.66Z" fill="#0D0D0D" fill-rule="evenodd"/><path d="M573.914 1735.86C616.94 1659.41 713.798 1632.31 790.254 1675.33L1870.53 2283.26C1946.98 2326.28 1974.08 2423.14 1931.06 2499.6L1931.06 2499.6C1888.03 2576.05 1791.17 2603.15 1714.72 2560.13L634.445 1952.2C557.989 1909.18 530.889 1812.32 573.914 1735.86Z" fill="#0D0D0D" fill-rule="evenodd"/><path d="M1670.57 3272.14C1627.95 3195.91 1655.19 3099.57 1731.42 3056.95L2832.23 2441.47C2908.46 2398.85 3004.8 2426.09 3047.42 2502.32L3047.42 2502.32C3090.04 2578.55 3062.8 2674.89 2986.57 2717.51L1885.76 3332.99C1809.53 3375.61 1713.19 3348.37 1670.57 3272.14Z" fill="#0D0D0D" fill-rule="evenodd"/><path d="M577.203 2502.08C620.034 2425.97 716.453 2399 792.562 2441.83L1876.18 3051.63C1952.29 3094.46 1979.27 3190.88 1936.44 3266.99L1936.43 3266.99C1893.6 3343.1 1797.18 3370.08 1721.07 3327.25L637.46 2717.44C561.351 2674.61 534.373 2578.19 577.204 2502.08Z" fill="#0D0D0D" fill-rule="evenodd"/></g></svg>